<?xml version="1.0" encoding="UTF-8"?>
<svg id="Layer_1" xmlns="http://www.w3.org/2000/svg" xmlns:xlink="http://www.w3.org/1999/xlink" version="1.1" viewBox="0 0 283.46 116.9">
  <!-- Generator: Adobe Illustrator 30.3.0, SVG Export Plug-In . SVG Version: 2.1.3 Build 182)  -->
  <defs>
    <style>
      .st0 {
        fill: none;
      }

      .st1 {
        fill: #ce0e2d;
      }

      .st2 {
        fill: #6e6e70;
      }

      .st3 {
        clip-path: url(#clippath);
      }
    </style>
    <clipPath id="clippath">
      <rect class="st0" x="44.98" y="27.16" width="192.82" height="66.71"/>
    </clipPath>
  </defs>
  <g class="st3">
    <path class="st1" d="M117.74,44.03c0,6.57,4.87,11.43,13.01,11.43,3.43,0,6.67-.54,10.01-2.1l3.05,4.15c-4.22,2.22-8.27,3.39-14.49,3.39-12.98,0-22.52-6.25-22.52-16.87h0c0-10.62,9.54-16.87,22.52-16.87,6.22,0,9.8.91,14.18,2.79l-3.12,4.77c-3.32-1.76-6.2-2.12-9.64-2.12-8.14,0-13.01,4.85-13.01,11.42M167.27,27.16c-12.57,0-21.63,6.26-21.63,16.87s9.06,16.87,21.63,16.87,21.64-6.25,21.64-16.87-9.07-16.87-21.64-16.87M167.27,55.66c-6.91,0-10.73-5.19-10.73-11.63s3.82-11.63,10.73-11.63,10.73,5.2,10.73,11.63-3.82,11.63-10.73,11.63M221.58,46.48v13.58h10.39V28.01h-10.39v12.22h-15.88v-12.22h-10.36v32.04h10.36v-13.57h15.88ZM89.6,28.01h10.94v32.04h-10.94V28.01ZM58.23,42.68v3.06c5.32,4.16,10.1,8.97,14.23,14.31h12.24c-4.26-5-10.79-10.95-15.61-13.94,5.65-.23,11.95-2.52,11.95-9.01,0-8.32-8.89-9.85-17.88-9.85-7.34,0-14.11.34-18.17.67v32.12h10.22v-27.29c2.66-.31,5.33-.46,8-.43,5.26,0,7.92,1.74,7.92,4.77,0,2.59-1.1,5.69-12.9,5.58"/>
    <path class="st2" d="M45.81,69.66h2.61v2.54h-2.61v-2.54ZM45.81,74.89h2.61v13.06h-2.61v-13.06ZM67.98,87.95v-8.39c0-1.59-.5-2.9-2.32-2.9-2.14,0-2.9,2.16-2.9,4.17v7.12h-2.61v-8.38c0-1.59-.5-2.9-2.32-2.9-2.14,0-2.93,2.16-2.93,4.17v7.12h-2.61v-10.06c0-1-.04-2-.13-3h2.45l.08,2.25c.86-1.67,2.22-2.5,3.99-2.5,2.06,0,3.42,1.23,3.82,2.67.63-1.62,2.32-2.66,4-2.66,2.84,0,4.12,1.93,4.12,4.62v8.7h-2.63ZM185.9,87.95l-.08-2.07c-1.87,3.49-8.44,3.12-8.44-1.38,0-3.39,3.25-4.79,8.36-4.54,0-.02.28-2.46-1.4-3.21-1.1-.49-3.44-.42-5.42.75l-.16-2.01c3.04-1.25,9.54-2.04,9.54,4.01v5.55c0,.97.04,1.94.16,2.9h-2.56ZM183.34,86.3c1.92-.45,2.48-2.39,2.4-4.75,0,0-5.93-.48-5.77,2.81.1,1.93,1.95,2.28,3.37,1.94M81.75,87.95l-.08-2.07c-1.87,3.49-8.44,3.12-8.44-1.38,0-3.39,3.25-4.79,8.36-4.54,0-.02.28-2.46-1.4-3.21-1.1-.49-3.44-.42-5.42.75l-.16-2.01c3.03-1.25,9.53-2.04,9.53,4.01v5.55c0,.97.04,1.94.15,2.9h-2.55ZM79.19,86.3c1.92-.45,2.48-2.39,2.4-4.75,0,0-5.93-.48-5.77,2.81.09,1.93,1.95,2.28,3.37,1.94M206.72,93.17l.16-2.22c1.2.63,2.54.95,3.89.94,4.52-.07,4.26-3.82,4.26-6.22,0,0-1.31,2.26-4.05,2.27-3.81.01-5.3-3.32-5.3-6.58,0-3.47,1.49-6.74,5.35-6.74,1.8,0,3.27.78,4.1,2.43v-2.17h2.51v12.33c0,7.27-6.47,7.33-10.92,5.96M211.78,76.64c-2.69,0-3.29,2.56-3.29,4.75,0,2.04.63,4.54,3.26,4.54s3.34-2.56,3.34-4.54c0-2.09-.79-4.75-3.32-4.75M87.96,93.17l.16-2.22c1.2.63,2.54.95,3.89.94,4.52-.07,4.26-3.82,4.26-6.22,0,0-1.31,2.26-4.05,2.27-3.81.01-5.3-3.32-5.3-6.58,0-3.47,1.49-6.74,5.35-6.74,1.8,0,3.27.78,4.1,2.43v-2.17h2.5v12.33c0,7.27-6.46,7.33-10.92,5.96M93.03,76.64c-2.69,0-3.29,2.56-3.29,4.75,0,2.04.63,4.54,3.27,4.54s3.34-2.56,3.34-4.54c0-2.09-.78-4.75-3.32-4.75M102.74,69.66h2.61v2.53h-2.61v-2.53ZM102.74,74.89h2.61v13.06h-2.61v-13.06ZM223.12,82.1c.15,4.56,4.21,5.14,7.84,3.39l.16,2.04c-5.25,1.7-10.69.7-10.69-6.16,0-3.58,2.27-6.74,5.9-6.74,6.16,0,5.46,7.47,5.46,7.47h-8.67ZM226.37,76.43c-2.22,0-3.27,2.38-3.27,4.05h6.19c0-1.86-.71-4.05-2.93-4.05M125.8,82.1c.15,4.56,4.22,5.14,7.84,3.39l.16,2.04c-5.25,1.7-10.69.7-10.69-6.16,0-3.58,2.28-6.74,5.9-6.74,6.16,0,5.46,7.47,5.46,7.47h-8.68ZM129.04,76.43c-2.22,0-3.26,2.38-3.26,4.05h6.19c0-1.86-.71-4.05-2.93-4.05M137.68,85.26h2.8v2.69h-2.8v-2.69ZM149.71,81.37c0-5.94,5.73-7.85,10.72-6.19l-.16,2.09c-3.27-1.53-7.74-.57-7.74,4.1s4.26,5.83,7.77,4.28l.13,2.06c-4.14,1.41-10.72.33-10.72-6.35M170.26,74.63c-1.83,0-3.24.81-4.05,2.43v-7.39h-2.61v18.28h2.61v-6.84c0-2.04.79-4.44,3.19-4.44,2.24,0,2.59,1.72,2.59,3.58v7.7h2.64v-8.25c0-2.98-1.23-5.07-4.36-5.07M200.24,87.95v-7.71c0-1.83-.34-3.58-2.59-3.58-2.43,0-3.18,2.22-3.18,4.28v7.01h-2.61v-10.06c0-1-.04-2.01-.13-3.01h2.45l.08,2.25c.89-1.65,2.35-2.51,4.23-2.51,3.24,0,4.39,2.06,4.39,5.07v8.26h-2.64ZM117.67,87.95v-7.71c0-1.83-.34-3.58-2.59-3.58-2.43,0-3.19,2.22-3.19,4.28v7.01h-2.61v-10.06c0-1-.04-2.01-.13-3.01h2.46l.08,2.25c.89-1.65,2.35-2.51,4.23-2.51,3.24,0,4.39,2.06,4.39,5.07v8.26h-2.64ZM235.01,85.26h2.79v2.69h-2.79v-2.69Z"/>
  </g>
</svg>